# xmcd
#
# Track frame offsets:
#	150
#	20552
#	35294
#	48363
#	61725
#	83597
#	107877
#	121725
#	159401
#
# Disc length: 2371 seconds
#
# Revision: 1
# Processed by: cddbd v1.5.1PL2 Copyright (c) Steve Scherf et al.
# Submitted via: CDmax 2.0
#
DISCID=62094109
DTITLE=Metro
DYEAR=1900
DGENRE=Blues
TTITLE0=Criminal World
TTITLE1=Precicious
TTITLE2=Overture to Flame
TTITLE3=Flame
TTITLE4=Mono Messiah
TTITLE5=Black Lace Shoulder
TTITLE6=Paris
TTITLE7=One Way Night
TTITLE8=Jade
EXTD=
EXTT0=
EXTT1=
EXTT2=
EXTT3=
EXTT4=
EXTT5=
EXTT6=
EXTT7=
EXTT8=
PLAYORDER=
